<?xml version="1.0" encoding="iso-8859-1"?>
<!-- Generator: Adobe Illustrator 18.1.1, SVG Export Plug-In . SVG Version: 6.00 Build 0)  -->
<svg version="1.1" id="Capa_1" xmlns="http://www.w3.org/2000/svg" xmlns:xlink="http://www.w3.org/1999/xlink" x="0px" y="0px"
	 viewBox="0 0 455.2 455.2" style="enable-background:new 0 0 455.2 455.2;" xml:space="preserve">
<g>
	<g>
		<path style="fill:#010002;" d="M94.82,455.2c44.862,0,85.789-22.5,116.596-59.347c13.233,35.985,31.758,59.347,55.38,59.347
			c95.568,0,173.318-102.103,173.318-227.6S362.364,0,266.796,0c-23.622,0-42.147,23.362-55.38,59.347
			C180.609,22.5,139.681,0,94.82,0C42.472,0,15.087,114.499,15.087,227.6S42.472,455.2,94.82,455.2z M141.51,39.058
			c23.166,10.876,43.642,29.702,59.867,53.966c8.177,12.225,15.274,25.816,21.045,40.562c10.974,28.027,17.265,60.013,17.265,94.015
			s-6.292,65.988-17.265,94.015c-5.771,14.745-12.868,28.336-21.045,40.562c-16.233,24.264-36.701,43.09-59.867,53.966
			c0.195-0.382,0.374-0.805,0.561-1.195c0.935-1.894,1.853-3.845,2.747-5.844c0.293-0.658,0.602-1.301,0.894-1.975
			c1.171-2.691,2.309-5.462,3.406-8.332c0.146-0.374,0.276-0.78,0.423-1.154c0.943-2.495,1.853-5.048,2.739-7.665
			c0.317-0.943,0.634-1.902,0.943-2.861c0.715-2.187,1.414-4.414,2.089-6.674c0.301-1,0.602-2,0.902-3.016
			c0.772-2.658,1.512-5.373,2.235-8.129c0.154-0.585,0.317-1.146,0.463-1.731c0.854-3.341,1.674-6.755,2.463-10.218
			c0.211-0.943,0.415-1.91,0.626-2.861c0.569-2.585,1.122-5.194,1.65-7.836c0.244-1.211,0.48-2.43,0.715-3.658
			c0.496-2.585,0.967-5.202,1.431-7.836c0.195-1.105,0.39-2.203,0.577-3.325c0.618-3.699,1.211-7.43,1.756-11.209
			c0.065-0.455,0.122-0.927,0.187-1.382c0.48-3.365,0.927-6.771,1.357-10.201c0.154-1.252,0.301-2.512,0.447-3.772
			c0.325-2.747,0.626-5.503,0.91-8.283c0.138-1.317,0.276-2.634,0.398-3.95c0.301-3.089,0.577-6.202,0.829-9.323
			c0.073-0.91,0.163-1.813,0.228-2.723c0.309-4.007,0.585-8.031,0.829-12.079c0.057-1.016,0.106-2.04,0.163-3.056
			c0.171-3.089,0.325-6.178,0.447-9.283c0.057-1.366,0.106-2.731,0.154-4.105c0.106-2.902,0.187-5.812,0.252-8.722
			c0.033-1.276,0.065-2.544,0.089-3.812c0.073-4.105,0.122-8.21,0.122-12.323c0-4.113-0.049-8.218-0.122-12.323
			c-0.024-1.276-0.057-2.544-0.089-3.812c-0.065-2.91-0.146-5.82-0.252-8.722c-0.049-1.374-0.098-2.739-0.154-4.105
			c-0.13-3.105-0.285-6.194-0.447-9.283c-0.057-1.016-0.106-2.04-0.163-3.056c-0.244-4.04-0.512-8.072-0.829-12.079
			c-0.073-0.91-0.154-1.813-0.228-2.723c-0.252-3.121-0.528-6.235-0.829-9.323c-0.13-1.325-0.268-2.634-0.398-3.95
			c-0.285-2.78-0.593-5.536-0.91-8.283c-0.146-1.26-0.293-2.52-0.447-3.772c-0.423-3.43-0.878-6.828-1.357-10.201
			c-0.065-0.455-0.122-0.927-0.187-1.382c-0.545-3.78-1.138-7.519-1.756-11.209c-0.187-1.114-0.39-2.211-0.577-3.325
			c-0.463-2.642-0.935-5.251-1.431-7.836c-0.236-1.227-0.471-2.447-0.715-3.658c-0.528-2.642-1.081-5.251-1.65-7.836
			c-0.211-0.951-0.406-1.918-0.626-2.861c-0.788-3.463-1.601-6.877-2.463-10.218c-0.146-0.585-0.309-1.146-0.463-1.731
			c-0.723-2.756-1.463-5.471-2.235-8.129c-0.293-1.016-0.593-2.016-0.902-3.016c-0.683-2.26-1.374-4.487-2.089-6.674
			c-0.317-0.959-0.626-1.918-0.943-2.861c-0.886-2.617-1.805-5.17-2.739-7.665c-0.146-0.382-0.276-0.78-0.423-1.154
			c-1.097-2.869-2.243-5.641-3.406-8.332c-0.293-0.675-0.593-1.309-0.894-1.975c-0.894-2-1.813-3.95-2.747-5.844
			C141.884,39.863,141.705,39.44,141.51,39.058z M411.664,227.6c0,87.366-41.131,161.767-98.177,188.534
			c0.187-0.366,0.35-0.772,0.536-1.138c0.959-1.935,1.894-3.926,2.812-5.975c0.276-0.626,0.569-1.227,0.845-1.861
			c1.179-2.707,2.325-5.495,3.43-8.381c0.13-0.333,0.244-0.683,0.374-1.024c0.959-2.536,1.886-5.145,2.796-7.812
			c0.309-0.919,0.618-1.853,0.919-2.788c0.723-2.219,1.431-4.471,2.122-6.763c0.293-0.984,0.593-1.959,0.878-2.951
			c0.78-2.691,1.528-5.43,2.26-8.218c0.146-0.553,0.301-1.089,0.447-1.65c0.862-3.349,1.674-6.771,2.463-10.242
			c0.211-0.935,0.406-1.886,0.618-2.829c0.569-2.593,1.122-5.21,1.65-7.868c0.244-1.211,0.48-2.422,0.715-3.642
			c0.496-2.593,0.975-5.21,1.431-7.86c0.195-1.105,0.39-2.195,0.577-3.308c0.618-3.699,1.211-7.438,1.756-11.217
			c0.065-0.447,0.122-0.91,0.187-1.357c0.48-3.373,0.935-6.787,1.357-10.226c0.154-1.252,0.301-2.504,0.447-3.764
			c0.325-2.747,0.626-5.511,0.919-8.291c0.138-1.317,0.276-2.626,0.398-3.951c0.301-3.089,0.577-6.202,0.829-9.323
			c0.073-0.91,0.163-1.813,0.228-2.723c0.309-4.007,0.585-8.031,0.829-12.079c0.057-1.016,0.106-2.04,0.163-3.056
			c0.171-3.089,0.325-6.178,0.447-9.283c0.057-1.366,0.106-2.731,0.154-4.105c0.106-2.902,0.187-5.812,0.252-8.722
			c0.033-1.276,0.065-2.544,0.089-3.812c0.073-4.105,0.122-8.21,0.122-12.323c0-4.113-0.049-8.218-0.122-12.323
			c-0.024-1.276-0.057-2.544-0.089-3.812c-0.065-2.91-0.146-5.82-0.252-8.722c-0.049-1.374-0.098-2.739-0.154-4.105
			c-0.13-3.105-0.285-6.194-0.447-9.283c-0.057-1.016-0.106-2.04-0.163-3.056c-0.244-4.048-0.512-8.072-0.829-12.079
			c-0.073-0.91-0.154-1.813-0.228-2.723c-0.26-3.121-0.528-6.235-0.829-9.323c-0.13-1.325-0.268-2.634-0.398-3.95
			c-0.285-2.78-0.593-5.544-0.919-8.291c-0.146-1.252-0.293-2.512-0.447-3.764c-0.423-3.438-0.878-6.844-1.357-10.226
			c-0.065-0.447-0.122-0.91-0.187-1.357c-0.553-3.788-1.138-7.519-1.756-11.217c-0.187-1.114-0.382-2.203-0.577-3.308
			c-0.463-2.642-0.935-5.267-1.431-7.86c-0.236-1.219-0.471-2.43-0.715-3.642c-0.528-2.658-1.081-5.275-1.65-7.868
			c-0.203-0.943-0.406-1.894-0.618-2.829c-0.788-3.471-1.609-6.893-2.463-10.242c-0.146-0.561-0.301-1.097-0.447-1.65
			c-0.732-2.788-1.479-5.527-2.26-8.218c-0.284-0.992-0.585-1.975-0.878-2.951c-0.691-2.292-1.398-4.544-2.122-6.763
			c-0.309-0.935-0.61-1.87-0.919-2.788c-0.902-2.666-1.837-5.267-2.796-7.812c-0.13-0.333-0.244-0.691-0.374-1.024
			c-1.105-2.886-2.252-5.674-3.43-8.381c-0.276-0.634-0.561-1.236-0.845-1.861c-0.919-2.048-1.853-4.04-2.812-5.974
			c-0.187-0.366-0.35-0.772-0.536-1.138C370.541,65.833,411.664,140.234,411.664,227.6z M266.796,28.45
			c17.411,0,51.291,70.288,51.291,199.15s-33.88,199.15-51.291,199.15c-9.437,0-23.695-20.825-34.79-60.29
			c22.63-38.456,36.14-86.61,36.14-138.86s-13.51-100.404-36.14-138.86C243.101,49.275,257.359,28.45,266.796,28.45z M94.82,28.45
			c17.411,0,51.291,70.288,51.291,199.15s-33.88,199.15-51.291,199.15S43.537,356.462,43.537,227.6S77.408,28.45,94.82,28.45z"/>
		<path style="fill:#010002;" d="M193.631,321.607c6.096,3.26,13.843,2.536,17.639-5.568c3.113-6.625,5.576-13.274,7.747-19.948
			c9.202-28.239,10.9-57.054,10.925-87.602c0.008-8.925-6.674-13.493-13.583-13.802c-7.405-0.333-15.07,4.243-15.079,13.802
			c-0.024,29.035-0.772,57.266-11.136,84.31c-1.122,2.934-2.268,5.869-3.633,8.779C182.495,310.154,187.136,318.136,193.631,321.607
			z"/>
		<path style="fill:#010002;" d="M383.246,316.039c16.265-34.644,18.647-69.784,18.679-107.549c0.016-18.484-28.653-18.484-28.661,0
			c-0.024,32.189-0.829,63.403-14.761,93.088C350.691,318.201,375.394,332.768,383.246,316.039z"/>
	</g>
</g>
<g>
</g>
<g>
</g>
<g>
</g>
<g>
</g>
<g>
</g>
<g>
</g>
<g>
</g>
<g>
</g>
<g>
</g>
<g>
</g>
<g>
</g>
<g>
</g>
<g>
</g>
<g>
</g>
<g>
</g>
</svg>
